#!OML:ASF H:\GeneralSubjects\Female5\Project 1\Capture day 1\Session 1\Female5.ASF
:FULLY-SPECIFIED
:DEGREES
97
root 36.4135 15.5249 -1.36323 15.2264 79.4223 16.1506
lowerback 9.84092 2.2485 -1.50062
upperback -8.7401 2.76882 -1.63797
thorax -15.2764 1.39504 -1.64427
lowerneck -13.4016 -0.791935 3.54804
upperneck 36.6289 -0.301387 -1.72945
head 14.9504 0.627777 -1.26948
rclavicle 2.04251e-014 9.93923e-015
rhumerus -56.8666 15.1871 -79.4375
rradius 60.2496
rwrist -12.3348
rhand -22.6341 -19.6213
rfingers 7.12502
rthumb 3.79645 -49.5672
lclavicle 2.04251e-014 9.93923e-015
lhumerus -54.2174 4.14995 59.6517
lradius 34.668
lwrist -7.69633
lhand -29.775 37.7105
lfingers 7.12502
lthumb -3.10019 67.6677
rfemur -8.41605 2.41867 26.9472
rtibia 18.3258
rfoot -7.33261 -7.95359
rtoes -25.699
lfemur -28.7532 -19.7146 -25.2148
ltibia 36.7157
lfoot -13.6931 -3.37234
ltoes -55.5636
98
root 36.6464 15.6076 -1.37667 12.0519 78.299 13.7685
lowerback 10.5464 2.43216 -1.31557
upperback -8.62528 3.01566 -1.69047
thorax -15.5746 1.47296 -1.89715
lowerneck -13.4115 -0.505098 4.05159
upperneck 36.8483 -0.219591 -1.1575
head 15.0685 0.823535 -1.1055
rclavicle -1.34677e-014 -6.16232e-015
rhumerus -56.5061 15.4025 -80.4742
rradius 62.3224
rwrist -14.483
rhand -22.2062 -19.6815
rfingers 7.12502
rthumb 4.20961 -49.6196
lclavicle -1.34677e-014 -6.16232e-015
lhumerus -55.0899 6.53369 55.227
lradius 31.4888
lwrist -4.74414
lhand -29.4306 39.1295
lfingers 7.12502
lthumb -2.76756 69.0912
rfemur -5.36433 4.38904 27.4461
rtibia 16.3049
rfoot -6.45772 -9.88504
rtoes -23.5332
lfemur -26.8868 -21.9639 -24.2188
ltibia 32.7066
lfoot -11.7313 -3.84534
ltoes -53.476
99
root 36.8845 15.6801 -1.39224 9.81996 77.0355 12.069
lowerback 10.8816 2.67866 -0.780111
upperback -8.42629 3.37607 -2.10483
thorax -15.4807 1.54652 -2.75569
lowerneck -14.0179 -0.23759 4.79226
upperneck 37.0182 -0.403774 -0.345758
head 15.3018 0.962759 -0.927046
rclavicle -6.65929e-015 4.37326e-015
rhumerus -55.8981 15.0512 -81.7318
rradius 64.2314
rwrist -16.1197
rhand -22.0614 -19.3401
rfingers 7.12502
rthumb 4.34944 -49.2755
lclavicle -6.65929e-015 4.37326e-015
lhumerus -55.4245 8.96206 50.2164
lradius 28.7398
lwrist -2.4372
lhand -28.8346 41.1959
lfingers 7.12502
lthumb -2.19198 71.1644
rfemur -2.70471 6.49026 27.9969
rtibia 14.3385
rfoot -6.35849 -11.6374
rtoes -22.2408
lfemur -25.1075 -24.6821 -23.3003
ltibia 29.4184
lfoot -9.87253 -3.76898
ltoes -50.3679
100
root 37.1297 15.7319 -1.41167 8.2518 75.592 10.9608
lowerback 10.9738 3.01871 -0.154665
upperback -8.2546 3.87265 -2.66848
thorax -15.229 1.67298 -3.84955
lowerneck -14.5385 -0.00577294 5.78564
upperneck 37.1384 -0.694453 0.379188
head 15.4942 1.086 -0.843074
rclavicle 3.24019e-014 4.45278e-014
rhumerus -55.2661 14.5574 -83.0547
rradius 65.7309
rwrist -16.9442
rhand -22.0559 -18.6717
rfingers 7.12502
rthumb 4.35475 -48.6069
lclavicle 3.24019e-014 4.45278e-014
lhumerus -54.6318 10.6839 45.586
lradius 24.0825
lwrist -0.59548
lhand -28.1933 44.3074
lfingers 7.12502
lthumb -1.57257 74.2814
rfemur -0.204552 8.72419 28.5549
rtibia 12.7098
rfoot -9.2747 -11.6975
rtoes -21.7497
lfemur -23.032 -26.9232 -22.9466
ltibia 26.6329
lfoot -7.07842 -2.59135
ltoes -47.4978
101
root 37.38 15.7632 -1.43579 7.22369 74.0509 10.3296
lowerback 10.91 3.42805 0.605373
upperback -8.1325 4.47822 -3.38107
thorax -14.8878 1.83791 -5.19837
lowerneck -14.975 0.191412 7.06023
upperneck 37.2043 -1.07182 0.946799
head 15.642 1.1947 -0.886992
rclavicle 2.22639e-014 -1.59028e-015
rhumerus -54.7566 13.9692 -84.4773
rradius 66.9781
rwrist -17.1464
rhand -22.493 -17.8361
rfingers 7.12502
rthumb 3.93275 -47.7796
lclavicle 2.22639e-014 -1.59028e-015
lhumerus -57.7077 13.9456 39.2135
lradius 26.5552
lwrist -3.58841
lhand -28.4779 43.7045
lfingers 7.12502
lthumb -1.84743 73.6763
rfemur 2.13494 10.7899 29.0395
rtibia 11.4043
rfoot -9.442 -13.8011
rtoes -21.266
lfemur -20.6807 -28.0534 -23.213
ltibia 24.1191
lfoot -3.81345 -0.837104
ltoes -44.4231
102
root 37.632 15.7828 -1.45737 6.80528 72.5816 9.91902
lowerback 10.3722 3.81862 1.29793
upperback -8.10929 5.05814 -4.08717
thorax -14.3461 2.02152 -6.44882
lowerneck -15.2157 0.375683 8.25727
upperneck 36.9485 -1.46451 1.58605
head 15.5881 1.27877 -0.890388
rclavicle 3.83654e-014 2.3059e-014
rhumerus -54.2809 13.4276 -85.7601
rradius 68.1568
rwrist -16.4401
rhand -22.9301 -17.1842
rfingers 7.12502
rthumb 3.51061 -47.1351
lclavicle 3.83654e-014 2.3059e-014
lhumerus -59.3296 16.1953 33.755
lradius 26.6855
lwrist -7.20156
lhand -28.2555 43.2219
lfingers 7.12502
lthumb -1.63269 73.1954
rfemur 3.80302 12.4349 29.3174
rtibia 10.1687
rfoot -12.1621 -12.8891
rtoes -23.4666
lfemur -18.6007 -28.426 -23.6153
ltibia 21.8807
lfoot -0.985707 1.29865
ltoes -37.9938
